<?xml version="1.0" encoding="utf-8"?>
<!-- Generator: Adobe Illustrator 16.0.0, SVG Export Plug-In . SVG Version: 6.00 Build 0)  -->
<!DOCTYPE svg PUBLIC "-//W3C//DTD SVG 1.1//EN" "http://www.w3.org/Graphics/SVG/1.1/DTD/svg11.dtd">
<svg version="1.1" id="Layer_1" xmlns="http://www.w3.org/2000/svg" xmlns:xlink="http://www.w3.org/1999/xlink" x="0px" y="0px"
	 width="2100px" height="2100px" viewBox="118.5 70.5 2100 2100" enable-background="new 118.5 70.5 2100 2100"
	 xml:space="preserve">
<circle fill="#005782" cx="1168.5" cy="670.5" r="375"/>
<path fill="#005782" d="M1393.5,670.5c0,112.5-112.5,225-225,225v750c0,0,75,0,112.5-75s187.5-562.5,187.5-562.5s75-225,75-337.5
	C1543.5,670.5,1393.5,670.5,1393.5,670.5z"/>
<path fill="#199ED8" d="M943.5,670.5c0,112.5,112.5,225,225,225v750c0,0-75,0-112.5-75S868.5,1008,868.5,1008s-75-225-75-337.5
	C793.5,670.5,943.5,670.5,943.5,670.5z"/>
<circle fill="#FFFFFF" cx="1168.5" cy="670.5" r="225"/>
<g>
	<path fill="#005782" d="M1114.1,743.379c3.476,6.695,8.094,12.115,13.853,16.262c5.753,4.154,12.511,7.228,20.278,9.235
		c7.76,2.008,15.791,3.012,24.092,3.012c5.622,0,11.645-0.464,18.068-1.405c6.426-0.935,12.447-2.742,18.07-5.421
		c5.621-2.673,10.302-6.355,14.053-11.042c3.746-4.681,5.622-10.64,5.622-17.869c0-7.76-2.479-14.053-7.429-18.872
		c-4.956-4.818-11.443-8.833-19.475-12.046c-8.03-3.212-17.133-6.023-27.305-8.432c-10.176-2.409-20.479-5.082-30.918-8.031
		c-10.709-2.672-21.149-5.954-31.32-9.838c-10.176-3.877-19.273-8.896-27.304-15.058c-8.03-6.154-14.524-13.853-19.475-23.088
		c-4.956-9.235-7.429-20.409-7.429-33.528c0-14.719,3.145-27.505,9.436-38.347c6.287-10.842,14.52-19.876,24.695-27.104
		c10.17-7.228,21.684-12.58,34.532-16.061c12.849-3.477,25.698-5.22,38.548-5.22c14.988,0,29.374,1.675,43.164,5.019
		c13.785,3.351,26.032,8.771,36.741,16.262c10.704,7.498,19.206,17.065,25.497,28.71c6.287,11.644,9.437,25.767,9.437,42.362
		h-61.033c-0.54-8.564-2.347-15.66-5.421-21.281c-3.081-5.622-7.165-10.039-12.247-13.251c-5.089-3.212-10.91-5.483-17.467-6.826
		c-6.562-1.336-13.722-2.008-21.482-2.008c-5.088,0-10.177,0.54-15.259,1.606c-5.088,1.073-9.705,2.949-13.853,5.622
		c-4.153,2.679-7.566,6.023-10.239,10.038c-2.679,4.016-4.016,9.104-4.016,15.258c0,5.622,1.066,10.177,3.213,13.652
		c2.14,3.482,6.355,6.695,12.648,9.637c6.287,2.949,14.988,5.892,26.1,8.834c11.105,2.949,25.63,6.694,43.566,11.243
		c5.353,1.073,12.781,3.011,22.286,5.823c9.498,2.811,18.935,7.296,28.308,13.451c9.368,6.162,17.467,14.393,24.294,24.695
		c6.826,10.308,10.239,23.489,10.239,39.551c0,13.118-2.547,25.296-7.63,36.54c-5.089,11.242-12.648,20.948-22.687,29.111
		c-10.039,8.168-22.486,14.525-37.344,19.073c-14.857,4.549-32.06,6.827-51.598,6.827c-15.797,0-31.119-1.945-45.975-5.822
		c-14.857-3.877-27.977-9.97-39.352-18.271c-11.381-8.294-20.416-18.873-27.104-31.721c-6.693-12.849-9.906-28.107-9.637-45.775
		h61.033C1108.879,728.521,1110.617,736.69,1114.1,743.379z"/>
</g>
<path fill="#005782" d="M1168.5,1685.875v225c62.132,0,112.5-50.368,112.5-112.5S1230.632,1685.875,1168.5,1685.875z"/>
<path fill="#199ED8" d="M1168.5,1685.875v225c-62.132,0-112.5-50.368-112.5-112.5S1106.368,1685.875,1168.5,1685.875z"/>
</svg>
